<svg width="230" height="246" viewBox="0 0 230 246" fill="none" xmlns="http://www.w3.org/2000/svg">
<circle opacity="0.8" cx="110.5" cy="110.5" r="110.5" fill="#4c1d95"/>
<path d="M139.581 216.188H81.1569C71.1365 216.188 62.9385 208.022 62.9385 198.042V146.628C62.9385 136.648 71.1365 128.482 81.1569 128.482H139.582C149.602 128.482 157.8 136.648 157.8 146.628V198.042C157.8 208.022 149.602 216.188 139.581 216.188Z" fill="white"/>
<path d="M139.581 128.482C149.602 128.482 157.8 136.647 157.8 146.627V198.041C157.8 208.022 149.602 216.187 139.581 216.187H81.1572C71.1367 216.187 62.9387 208.022 62.9387 198.041V146.627C62.9387 136.647 71.1367 128.482 81.1572 128.482H139.581V128.482ZM139.581 125.614H81.1572C78.3195 125.614 75.5607 126.172 72.9575 127.274C70.4481 128.336 68.1929 129.853 66.2545 131.784C64.316 133.715 62.7923 135.962 61.726 138.46C60.6202 141.053 60.0591 143.801 60.0591 146.627V198.041C60.0591 200.868 60.6202 203.615 61.726 206.208C62.7923 208.708 64.3152 210.954 66.2545 212.885C68.1929 214.815 70.4489 216.333 72.9575 217.395C75.5607 218.496 78.3195 219.055 81.1572 219.055H139.582C142.42 219.055 145.179 218.496 147.782 217.395C150.291 216.333 152.547 214.816 154.485 212.885C156.423 210.954 157.947 208.707 159.013 206.208C160.119 203.615 160.68 200.868 160.68 198.041V146.627C160.68 143.801 160.119 141.053 159.013 138.46C157.947 135.961 156.424 133.715 154.485 131.784C152.547 129.854 150.291 128.336 147.782 127.274C145.179 126.172 142.419 125.614 139.581 125.614Z" fill="#4c1d95"/>
<path d="M156.494 184.396C147.397 185.458 138.33 185.72 138.33 185.72C138.33 185.72 133.713 162.787 132.433 144.805C131.49 131.481 132.377 120.878 138.33 124.336C141.069 125.927 144.224 128.924 147.513 132.726C159.85 146.989 174.025 172.601 174.802 177.915C175.304 181.333 165.886 183.293 156.494 184.396Z" fill="white"/>
<path d="M137.112 187.247L136.864 186.014C136.836 185.873 134.012 171.782 132.185 157.192C131.107 148.59 130.58 141.488 130.618 136.083C130.67 128.701 131.746 124.515 134.005 122.908C134.996 122.202 136.683 121.655 139.085 123.05C147.005 127.652 157.057 142.313 162.344 150.642C165.87 156.198 169.246 162.038 171.85 167.086C173.685 170.643 175.943 175.371 176.285 177.699C176.384 178.375 176.318 179.401 175.437 180.445C174.165 181.954 171.521 183.136 167.117 184.162C163.888 184.914 159.738 185.561 154.784 186.086C146.396 186.973 138.453 187.209 138.374 187.211L137.112 187.247ZM136.268 125.167C135.979 125.167 135.828 125.275 135.745 125.333C134.768 126.028 131.841 130.35 135.153 156.808C136.654 168.79 138.832 180.439 139.556 184.184C142.11 184.081 148.17 183.787 154.484 183.119C169.143 181.566 172.417 179.39 173.145 178.527C173.347 178.289 173.33 178.178 173.323 178.13C172.898 175.234 167.368 164.136 159.814 152.235C151.066 138.452 142.961 128.753 137.577 125.625C136.967 125.27 136.551 125.167 136.268 125.167Z" fill="#4c1d95"/>
<path d="M92.0435 123.49L90.2022 137.362L89.1548 145.249L86.921 162.088C86.921 162.088 82.8385 164.853 76.0474 167.045C73.51 167.865 70.5876 168.598 67.3623 169.079C62.0901 169.869 55.9942 169.97 49.3899 168.625C32.3982 165.158 22.2009 152.587 17.786 146.267C9.25312 134.067 7.94 130.769 10.312 125.633C12.1229 121.697 15.2256 120.979 15.2256 120.979C15.2256 120.979 15.0725 117.833 17.5721 116.715C25.0633 113.364 34.7135 122.313 34.7135 122.313C34.7135 122.313 35.073 112.69 40.2441 114.911C43.8067 116.443 44.6146 126.92 44.6146 126.92C44.6146 126.92 49.3965 133.04 56.9931 133.852C60.9629 134.276 66.4565 133.129 71.9122 131.463C71.9756 131.444 72.0397 131.426 72.1031 131.403C75.0107 130.509 77.8994 129.472 80.5446 128.447C81.731 127.989 82.8681 127.53 83.9344 127.091C88.7015 125.123 92.0435 123.49 92.0435 123.49Z" fill="white"/>
<path opacity="0.35" d="M17.7835 146.267C22.2026 152.586 32.3982 165.159 49.3882 168.625C60.0307 170.793 69.3567 169.2 76.0482 167.042C82.8392 164.853 86.921 162.086 86.921 162.086L87.2204 148.798C87.2204 148.798 82.5932 144.357 78.2836 146.168C73.1052 148.343 74.7647 155.739 67.3689 157.796C46.8089 163.514 30.1068 153.067 24.7326 148.48C17.2767 142.118 15.3317 138.11 14.2827 136.457C12.1114 133.035 10.4346 130.347 9.48926 127.939C8.5258 132.012 10.5827 135.968 17.7835 146.267Z" fill="#4c1d95"/>
<path d="M59.6413 171.148C56.0936 171.148 52.5606 170.793 49.0886 170.084C41.4509 168.526 34.325 165.019 27.9099 159.658C23.7813 156.208 19.9612 151.988 16.5566 147.119C12.4016 141.175 9.76058 137.093 8.55606 133.813C7.40172 130.67 7.51609 128.12 8.94934 125.01C10.3604 121.946 12.4938 120.538 13.7831 119.934C13.9937 118.359 14.814 116.316 16.9581 115.357C23.0498 112.631 30.0795 116.849 33.559 119.445C33.5927 119.269 33.6305 119.089 33.6709 118.906C34.2476 116.33 35.2432 114.581 36.6295 113.71C37.4811 113.175 38.902 112.712 40.8396 113.545C42.8052 114.391 44.2392 116.881 45.2249 121.158C45.7293 123.349 45.972 125.406 46.0633 126.317C47.1214 127.511 51.2566 131.739 57.1541 132.369C67.92 133.518 91.1498 122.265 91.3835 122.151C91.8788 121.909 92.4679 121.959 92.9155 122.28C93.363 122.6 93.5975 123.141 93.5259 123.685L88.4067 162.281C88.3508 162.702 88.1179 163.079 87.765 163.318C87.5938 163.434 83.4883 166.19 76.6618 168.411C72.6632 169.713 68.5494 170.56 64.4356 170.931C62.8369 171.076 61.2375 171.148 59.6413 171.148ZM15.5717 122.427C15.3784 122.479 13.0936 123.161 11.6694 126.252C9.75153 130.415 10.223 132.841 19.0125 145.414C27.2764 157.235 37.8834 164.755 49.6884 167.163C60.4443 169.356 69.7868 167.511 75.7304 165.577C80.769 163.937 84.2435 161.981 85.5287 161.2L90.1987 125.995C87.7592 127.105 83.7688 128.848 79.2905 130.52C69.3219 134.24 61.7657 135.859 56.8349 135.333C48.7002 134.465 43.6452 128.106 43.4337 127.836C43.2536 127.605 43.145 127.326 43.1227 127.034C43.1211 127.01 42.9179 124.465 42.2992 121.792C41.2567 117.286 40.0094 116.435 39.6523 116.281C38.7588 115.897 38.3729 116.139 38.2273 116.23C36.9693 117.018 36.2881 120.294 36.2058 122.368C36.1827 122.95 35.8207 123.466 35.2802 123.689C34.7388 123.911 34.1184 123.799 33.6898 123.402C33.6009 123.32 24.6764 115.171 18.184 118.076C16.6882 118.745 16.7154 120.765 16.7195 120.91C16.7639 121.646 16.295 122.274 15.5717 122.427Z" fill="#4c1d95"/>
<path d="M35.9446 122.311C35.9792 122.73 35.9167 123.111 35.8327 123.441C35.7908 123.612 35.7389 123.759 35.6863 123.911C35.6328 124.052 35.5744 124.197 35.5168 124.325C35.2807 124.855 35.0256 125.293 34.7829 125.718C34.5394 126.141 34.3049 126.544 34.0868 126.947L33.9272 127.25C33.877 127.352 33.8236 127.452 33.775 127.555L33.6335 127.863L33.4986 128.174L33.376 128.491L33.2624 128.812C33.2238 128.919 33.195 129.029 33.1604 129.138C33.1242 129.247 33.0971 129.358 33.0674 129.469C32.9539 129.915 32.856 130.374 32.7992 130.847C32.7375 131.319 32.698 131.803 32.6865 132.295C32.6742 132.543 32.6791 132.79 32.6766 133.043C32.6725 133.169 32.6832 133.294 32.684 133.421C32.6865 133.548 32.6906 133.675 32.6898 133.803V133.812C32.6898 133.911 32.6092 133.992 32.5088 133.992C32.4388 133.992 32.3788 133.952 32.3492 133.894C32.1089 133.43 31.8917 132.949 31.7239 132.445C31.547 131.944 31.4203 131.421 31.3273 130.886C31.1446 129.816 31.1488 128.683 31.3495 127.577L31.4326 127.164C31.4647 127.028 31.5001 126.893 31.5338 126.756C31.57 126.621 31.6103 126.488 31.6482 126.353C31.6877 126.219 31.7346 126.089 31.7782 125.957C31.9584 125.432 32.1813 124.934 32.4109 124.467C32.6396 124.001 32.8831 123.561 33.0806 123.179C33.2888 122.792 33.4064 122.478 33.4755 122.309L33.6203 121.954C33.8721 121.338 34.5772 121.042 35.1951 121.293C35.632 121.472 35.9076 121.874 35.9446 122.311Z" fill="#4c1d95"/>
<path d="M47.7445 169.648C47.3669 169.648 47.0024 169.44 46.823 169.08C46.5696 168.574 46.777 167.959 47.2854 167.707C51.4346 165.651 54.2699 159.234 55.4826 149.15C56.423 141.336 56.0322 134.068 56.0281 133.996C55.9969 133.431 56.4305 132.948 56.9973 132.916C57.5618 132.884 58.0496 133.317 58.0817 133.881C58.0858 133.955 58.4865 141.378 57.528 149.367C56.9611 154.094 56.0355 158.106 54.7767 161.289C53.1476 165.41 50.9352 168.186 48.202 169.541C48.0547 169.614 47.8984 169.648 47.7445 169.648Z" fill="#4c1d95"/>
<g opacity="0.35">
<g opacity="0.35">
<g opacity="0.35">
<g opacity="0.35">
<path opacity="0.35" d="M180.479 235.583V235.374C178.834 235.444 180.479 235.583 180.479 235.583Z" fill="#4c1d95"/>
</g>
</g>
</g>
</g>
<path d="M159.72 210.418H60.9144C60.9144 210.418 61.5167 193.434 67.3616 169.079C69.704 159.31 72.8922 148.356 77.2216 136.836C78.2615 134.071 79.3698 131.272 80.5447 128.446C83.83 120.564 87.6616 112.491 92.13 104.419H128.505C132.199 111.093 135.457 117.765 138.331 124.335C140.191 128.584 141.89 132.788 143.439 136.917C150.201 154.919 154.171 171.534 156.495 184.395C159.36 200.262 159.72 210.418 159.72 210.418Z" fill="white"/>
<path d="M146.156 149.584C148.065 151.707 148.938 154.179 149.744 156.661C150.149 157.902 150.548 159.146 150.929 160.396C151.12 161.021 151.316 161.644 151.486 162.274C151.661 162.903 151.832 163.534 152.003 164.164L152.503 166.058C152.668 166.69 152.834 167.321 152.989 167.956L153.898 171.766C154.046 172.402 154.208 173.034 154.353 173.671L154.786 175.58L155.231 177.487C155.381 178.122 155.536 178.756 155.676 179.394L156.533 183.215C156.68 183.851 156.807 184.492 156.943 185.13L157.344 187.047L157.545 188.005L157.645 188.484L157.739 188.965L158.115 190.886C158.24 191.527 158.369 192.167 158.505 192.806C158.635 193.446 158.766 194.086 158.903 194.725C159.475 197.276 159.893 199.86 160.067 202.477C160.089 202.804 160.114 203.13 160.13 203.459L160.172 204.443C160.193 205.1 160.212 205.756 160.202 206.418C160.198 207.077 160.183 207.738 160.14 208.401C160.101 209.064 160.046 209.727 159.946 210.395C159.927 210.523 159.806 210.612 159.677 210.593C159.589 210.58 159.52 210.52 159.49 210.443L159.489 210.44C159.017 209.19 158.631 207.935 158.267 206.679C158.087 206.052 157.914 205.422 157.747 204.794L157.507 203.849C157.431 203.533 157.353 203.219 157.274 202.903C156.968 201.642 156.698 200.377 156.456 199.107C156.339 198.471 156.233 197.834 156.136 197.195C156.031 196.556 155.935 195.917 155.835 195.278C155.738 194.638 155.636 193.999 155.533 193.361C155.422 192.724 155.3 192.088 155.175 191.453L154.803 189.548L154.71 189.072L154.61 188.597L154.411 187.647L154.013 185.747C153.878 185.114 153.752 184.479 153.606 183.848L152.756 180.059C152.619 179.426 152.459 178.798 152.309 178.169L151.844 176.283L151.368 174.401C151.29 174.087 151.202 173.775 151.118 173.463L150.863 172.526L149.835 168.781C149.479 167.536 149.116 166.294 148.769 165.047C148.597 164.423 148.424 163.799 148.256 163.174L148.131 162.705L147.998 162.238L147.738 161.303C147.39 160.057 147.06 158.805 146.735 157.551L146.496 156.608C146.416 156.295 146.328 155.983 146.244 155.67C146.077 155.044 145.937 154.41 145.832 153.765C145.728 153.119 145.654 152.464 145.626 151.793C145.612 151.458 145.61 151.119 145.622 150.775C145.636 150.43 145.658 150.082 145.719 149.722L145.721 149.709C145.744 149.572 145.873 149.481 146.01 149.504C146.068 149.514 146.119 149.544 146.156 149.584Z" fill="#4c1d95"/>
<path d="M60.6826 210.41C60.5304 210.073 60.4259 209.738 60.328 209.401C60.2301 209.063 60.1569 208.73 60.0919 208.394C59.9603 207.722 59.8895 207.054 59.85 206.388C59.8319 206.054 59.8196 205.721 59.8204 205.389C59.8212 205.057 59.8344 204.727 59.85 204.397L59.906 203.406C59.9232 203.076 59.9438 202.746 59.9709 202.416C60.0738 201.099 60.1742 199.779 60.3289 198.468C60.3988 197.811 60.4769 197.155 60.5543 196.499C60.5921 196.171 60.6431 195.845 60.6876 195.517L60.8266 194.536L61.1171 192.577C61.2191 191.925 61.3376 191.276 61.4486 190.625C61.6757 189.324 61.8896 188.022 62.1488 186.728C62.4006 185.433 62.6309 184.134 62.8885 182.841C63.1501 181.548 63.4052 180.254 63.6569 178.96C63.7211 178.636 63.7787 178.311 63.8486 177.989L64.056 177.022L64.4698 175.088L64.8837 173.155C64.919 172.993 64.9511 172.832 64.9881 172.671L65.1017 172.19L65.3288 171.227L66.2363 167.376C66.3095 167.055 66.3918 166.736 66.4732 166.416C66.5522 166.096 66.6328 165.776 66.7085 165.456C66.8616 164.814 67.013 164.172 67.1586 163.529C67.3075 162.886 67.4531 162.242 67.607 161.601C67.7551 160.957 67.941 160.325 68.127 159.691C68.317 159.06 68.5186 158.431 68.7301 157.805C68.9423 157.18 69.1678 156.558 69.3957 155.937L69.7478 155.01C69.8071 154.856 69.8729 154.703 69.9371 154.55C70.0021 154.398 70.0646 154.244 70.132 154.092C70.3978 153.483 70.6668 152.877 70.9532 152.276C71.2362 151.674 71.5316 151.076 71.8417 150.485C72.1519 149.893 72.4736 149.305 72.8307 148.73C72.899 148.619 73.0446 148.585 73.1557 148.654C73.2314 148.701 73.2717 148.783 73.2676 148.867V148.87C73.1195 151.574 72.611 154.148 72.1091 156.72C71.98 157.362 71.8483 158.002 71.7035 158.64C71.5579 159.277 71.4016 159.91 71.2354 160.54C70.8882 161.797 70.5393 163.054 70.1757 164.307C69.9938 164.934 69.8169 165.562 69.6417 166.191C69.5528 166.504 69.4697 166.82 69.385 167.135C69.3019 167.45 69.2163 167.765 69.1456 168.084L68.2479 171.893L68.0233 172.846L67.9114 173.322C67.8744 173.481 67.8423 173.64 67.8077 173.799L67.398 175.713L66.9883 177.626L66.7834 178.584C66.7151 178.902 66.6575 179.224 66.5942 179.543C65.5427 184.656 64.8359 189.83 64.1489 194.994L63.8824 196.929C63.7993 197.575 63.7162 198.221 63.6257 198.866L63.0958 202.736C62.9995 203.381 62.9222 204.026 62.835 204.671C62.7897 204.993 62.742 205.316 62.6819 205.637C62.6227 205.958 62.5643 206.279 62.4919 206.6C62.3479 207.241 62.1694 207.88 61.9579 208.517C61.8526 208.836 61.7267 209.156 61.5975 209.474C61.4651 209.792 61.3211 210.111 61.1434 210.428L61.1417 210.432C61.0726 210.555 60.9171 210.599 60.7937 210.53C60.7419 210.5 60.7049 210.458 60.6826 210.41Z" fill="#4c1d95"/>
<path d="M89.372 188.99C83.7369 191.263 75.0156 190.787 69.0704 190.07C65.5045 189.641 63.0008 186.363 63.5266 182.824C64.0063 179.594 66.8604 177.245 70.1342 177.398C75.6952 177.658 84.0372 177.779 89.3202 176.612" fill="white"/>
<g opacity="0.35">
<g opacity="0.35">
<g opacity="0.35">
<g opacity="0.35">
<path opacity="0.35" d="M89.3735 188.989C83.7368 191.265 75.0155 190.785 69.0702 190.073C65.5044 189.642 63.0015 186.363 63.5273 182.826C63.6318 182.104 63.8597 181.426 64.183 180.808C65.1218 182.593 66.8998 183.909 69.0702 184.172C75.0048 184.889 83.7113 185.364 89.3488 183.103L89.3735 188.989Z" fill="#4c1d95"/>
</g>
</g>
</g>
</g>
<path d="M78.1684 192.153C74.9078 192.153 71.6662 191.885 68.8902 191.551C66.7641 191.294 64.8775 190.219 63.5776 188.523C62.2752 186.823 61.7313 184.722 62.0456 182.606C62.3319 180.678 63.3209 178.933 64.8298 177.694C66.3404 176.452 68.2492 175.819 70.2041 175.91C78.3963 176.292 85.0698 176.025 88.9952 175.158C89.7834 174.984 91.7415 174.978 92.8975 178.679C94.0716 182.44 93.9416 188.757 89.9339 190.373C86.6289 191.705 82.3834 192.153 78.1684 192.153ZM69.8306 178.882C67.4166 178.882 65.3646 180.633 65.0075 183.042C64.8126 184.354 65.1499 185.659 65.9578 186.714C66.7633 187.765 67.9325 188.431 69.2505 188.59C77.7521 189.614 84.6995 189.266 88.8109 187.608C90.0318 187.116 90.3823 185.145 90.477 184.321C90.8061 181.436 89.9249 178.771 89.3728 178.126C84.015 179.248 75.9412 179.162 70.0651 178.888C69.9861 178.883 69.9079 178.882 69.8306 178.882Z" fill="#4c1d95"/>
<path d="M132.476 188.99C138.111 191.263 146.832 190.787 152.777 190.07C156.343 189.641 158.847 186.363 158.321 182.824C157.842 179.594 154.987 177.245 151.714 177.398C146.153 177.658 137.811 177.779 132.528 176.612" fill="white"/>
<g opacity="0.35">
<g opacity="0.35">
<g opacity="0.35">
<g opacity="0.35">
<path opacity="0.35" d="M152.776 190.073C146.83 190.785 138.11 191.265 132.472 188.989L132.497 183.048C138.134 185.309 146.84 184.834 152.776 184.117C154.936 183.859 156.704 182.553 157.648 180.777C157.98 181.401 158.214 182.089 158.324 182.825C158.845 186.363 156.342 189.642 152.776 190.073Z" fill="#4c1d95"/>
</g>
</g>
</g>
</g>
<path d="M143.68 192.153C139.465 192.153 135.22 191.705 131.914 190.373C127.906 188.757 127.776 182.439 128.95 178.679C130.106 174.978 132.065 174.984 132.853 175.157C136.779 176.025 143.452 176.292 151.644 175.91C153.6 175.819 155.508 176.452 157.018 177.693C158.527 178.933 159.516 180.677 159.802 182.606C160.117 184.722 159.572 186.823 158.27 188.522C156.97 190.219 155.084 191.294 152.958 191.55C150.182 191.885 146.939 192.153 143.68 192.153ZM132.476 178.126C131.924 178.771 131.043 181.436 131.372 184.321C131.466 185.145 131.816 187.116 133.038 187.609C137.149 189.266 144.097 189.615 152.598 188.59C153.916 188.431 155.085 187.765 155.891 186.714C156.699 185.659 157.036 184.355 156.841 183.042C156.473 180.556 154.299 178.771 151.785 178.888C145.907 179.162 137.834 179.247 132.476 178.126Z" fill="#4c1d95"/>
<path d="M134.654 172.522V192.358C134.654 196.038 131.629 199.051 127.934 199.051H91.2564C87.5663 199.051 84.5418 196.038 84.5418 192.358V172.522C84.5418 168.842 87.5663 165.834 91.2564 165.834H127.934C130.11 165.834 132.051 166.878 133.283 168.485C134.142 169.608 134.654 171.008 134.654 172.522Z" fill="white"/>
<g opacity="0.35">
<g opacity="0.35">
<g opacity="0.35">
<g opacity="0.35">
<path opacity="0.35" d="M134.652 172.522V192.358C134.652 196.038 131.63 199.049 127.935 199.049H91.2575C87.5625 199.049 84.5397 196.038 84.5397 192.358V184.939C90.0481 190.532 100.881 194.044 110.817 194.096C114.009 194.113 116.585 191.598 116.813 188.426C116.815 188.394 116.817 188.362 116.82 188.331C117.064 185.548 119.366 183.295 122.163 183.094C125.349 182.865 128.038 185.209 128.353 188.255C133.162 182.342 131.754 172.064 133.283 168.485C134.143 169.609 134.652 171.007 134.652 172.522Z" fill="#4c1d95"/>
</g>
</g>
</g>
</g>
<path d="M127.936 200.541H91.2568C86.7284 200.541 83.044 196.871 83.044 192.361V172.522C83.044 168.012 86.7284 164.342 91.2568 164.342H127.936C132.464 164.342 136.148 168.012 136.148 172.522V192.361C136.148 196.871 132.464 200.541 127.936 200.541ZM91.2568 167.323C88.3788 167.323 86.0372 169.655 86.0372 172.522V192.361C86.0372 195.227 88.3788 197.559 91.2568 197.559H127.936C130.814 197.559 133.155 195.227 133.155 192.361V172.522C133.155 169.655 130.814 167.323 127.936 167.323H91.2568Z" fill="#4c1d95"/>
<path d="M122.59 188.21C125.789 188.21 128.382 185.627 128.382 182.441C128.382 179.255 125.789 176.672 122.59 176.672C119.391 176.672 116.798 179.255 116.798 182.441C116.798 185.627 119.391 188.21 122.59 188.21Z" fill="#22A7F0"/>
<g opacity="0.7">
<g opacity="0.7">
<g opacity="0.7">
<g opacity="0.7">
<path opacity="0.7" d="M128.382 182.441C128.382 182.836 128.344 183.219 128.269 183.594C127.735 180.956 125.395 178.971 122.592 178.971C119.784 178.971 117.444 180.956 116.91 183.594C116.835 183.219 116.797 182.837 116.797 182.441C116.797 179.253 119.391 176.673 122.592 176.673C125.787 176.673 128.382 179.253 128.382 182.441Z" fill="white"/>
</g>
</g>
</g>
</g>
<g opacity="0.35">
<g opacity="0.35">
<g opacity="0.35">
<g opacity="0.35">
<path opacity="0.35" d="M128.381 182.44C128.381 185.625 125.788 188.208 122.59 188.208C119.392 188.208 116.799 185.625 116.799 182.44C116.799 181.703 116.939 181 117.197 180.353C118.031 182.505 120.132 184.028 122.591 184.028C125.049 184.028 127.15 182.505 127.985 180.353C128.242 181 128.381 181.703 128.381 182.44Z" fill="#4c1d95"/>
</g>
</g>
</g>
</g>
<path d="M122.59 189.328C118.777 189.328 115.676 186.238 115.676 182.441C115.676 178.643 118.777 175.554 122.59 175.554C126.403 175.554 129.505 178.643 129.505 182.441C129.505 186.238 126.403 189.328 122.59 189.328ZM122.59 177.79C120.016 177.79 117.921 179.877 117.921 182.441C117.921 185.005 120.016 187.091 122.59 187.091C125.165 187.091 127.259 185.005 127.259 182.441C127.259 179.877 125.165 177.79 122.59 177.79Z" fill="#4c1d95"/>
<path d="M106.177 200.168C105.557 200.168 105.055 199.667 105.055 199.05V185.463L97.72 179.963V165.833C97.72 165.215 98.2227 164.715 98.8423 164.715C99.4618 164.715 99.9645 165.215 99.9645 165.833V178.847L107.299 184.347V199.05C107.299 199.667 106.797 200.168 106.177 200.168Z" fill="#4c1d95"/>
<path d="M110.315 209.73C116.804 209.73 123.043 207.332 127.916 203.065C134.666 197.155 146.029 190.107 158.571 194.628C163.604 196.441 167.033 199.767 169.373 203.447C175.399 189.541 188.04 188.707 193.511 196.589C193.511 196.589 184.315 240.29 181.317 241.263C177.023 242.656 166.706 241.191 166.706 241.191C166.706 241.191 130.812 236.351 110.315 236.351C89.8188 236.351 53.9249 241.191 53.9249 241.191C53.9249 241.191 43.6075 242.655 39.3135 241.263C36.3162 240.29 27.1194 196.589 27.1194 196.589C32.5899 188.707 45.2316 189.541 51.2575 203.447C53.5967 199.766 57.0268 196.441 62.0596 194.628C74.6018 190.107 85.9649 197.155 92.7149 203.065C97.5881 207.332 103.827 209.73 110.315 209.73Z" fill="white"/>
<g opacity="0.35">
<path d="M193.513 196.587C193.513 196.587 184.315 240.29 181.318 241.263C177.025 242.657 166.705 241.192 166.705 241.192C166.705 241.192 130.813 236.351 110.315 236.351C89.8208 236.351 53.9246 241.192 53.9246 241.192C53.9246 241.192 43.608 242.657 39.3164 241.263C36.3191 240.29 27.1215 196.587 27.1215 196.587C28.0232 195.29 29.1158 194.228 30.3434 193.423C33.2922 206.237 37.4751 222.967 39.3164 223.564C43.6088 224.954 53.9246 223.489 53.9246 223.489C53.9246 223.489 89.8208 213.806 110.315 213.806C130.813 213.806 166.705 223.489 166.705 223.489C166.705 223.489 177.025 224.954 181.318 223.564C183.159 222.967 187.342 206.237 190.291 193.423C191.518 194.229 192.611 195.291 193.513 196.587Z" fill="#4c1d95"/>
</g>
<path d="M44.8474 243.35C42.5964 243.35 40.3971 243.182 38.8503 242.681C37.7955 242.338 36.9086 241.174 35.2442 236.009C34.27 232.986 33.1009 228.777 31.7705 223.497C29.3746 213.993 27.0396 203.333 26.1469 199.192C25.6796 197.023 26.3929 194.781 28.0096 193.34C31.1131 190.573 35.273 189.507 39.4213 190.417C42.0361 190.99 44.58 192.35 46.7784 194.349C48.5992 196.005 50.1822 198.073 51.5019 200.519C54.18 197.115 57.5517 194.667 61.552 193.226C66.0845 191.592 70.8269 191.267 75.6483 192.262C79.5408 193.065 83.4991 194.729 87.4122 197.21C88.1099 197.653 88.3147 198.574 87.8713 199.269C87.4278 199.964 86.5022 200.168 85.8045 199.726C77.7505 194.619 69.9334 193.376 62.5705 196.03C58.4181 197.527 55.0373 200.29 52.5238 204.246C52.2268 204.713 51.6936 204.977 51.1416 204.935C50.5887 204.891 50.1049 204.547 49.8844 204.039C47.3667 198.228 43.3187 194.325 38.7779 193.33C35.5807 192.629 32.3834 193.443 30.0065 195.563C29.1886 196.292 28.8316 197.443 29.0743 198.568C29.9168 202.477 32.1251 212.563 34.4255 221.778C35.6901 226.843 36.8107 230.965 37.7569 234.025C39.0815 238.312 39.7735 239.569 40.0195 239.92C43.401 240.864 51.0066 240.102 53.7152 239.717C53.7184 239.717 53.7217 239.717 53.725 239.716C54.0846 239.667 89.9545 234.862 110.316 234.862C130.679 234.862 166.548 239.667 166.907 239.716C166.911 239.717 166.915 239.717 166.918 239.717C169.627 240.102 177.232 240.864 180.614 239.92C180.856 239.576 181.529 238.355 182.809 234.243C183.733 231.278 184.826 227.283 186.06 222.367C188.261 213.603 190.369 204.067 191.431 199.163C191.779 197.556 191.174 195.909 189.89 194.967C187.441 193.168 184.405 192.631 181.344 193.455C176.957 194.636 173.194 198.395 170.749 204.04C170.529 204.547 170.045 204.892 169.492 204.936C168.938 204.979 168.406 204.713 168.109 204.246C165.596 200.292 162.216 197.527 158.064 196.031C150.636 193.354 142.752 194.64 134.629 199.855C133.934 200.301 133.008 200.101 132.56 199.409C132.112 198.717 132.312 197.795 133.007 197.348C136.944 194.821 140.928 193.119 144.848 192.291C149.717 191.262 154.506 191.577 159.082 193.227C163.082 194.668 166.454 197.117 169.133 200.521C171.944 195.316 175.938 191.821 180.563 190.577C184.467 189.525 188.514 190.251 191.668 192.566C193.897 194.204 194.953 197.039 194.358 199.791C193.234 204.986 191.006 215.052 188.714 224.088C187.415 229.213 186.273 233.295 185.321 236.222C183.697 241.215 182.825 242.345 181.782 242.682C177.231 244.159 167.023 242.744 166.503 242.67C165.94 242.595 130.418 237.844 110.317 237.844C90.2129 237.844 54.6942 242.595 54.1315 242.67C53.7859 242.717 49.2204 243.35 44.8474 243.35Z" fill="#4c1d95"/>
<path d="M178.652 241.263H181.318C184.448 241.263 187.285 239.435 188.56 236.588C192.55 227.688 199.826 208.131 193.011 196.197C192.813 195.848 192.6 195.513 192.376 195.192C192.376 195.192 185.833 189.265 181.133 197.65C176.742 205.483 167.527 238.976 178.652 241.263Z" fill="#AFAFB2"/>
<g opacity="0.7">
<g opacity="0.7">
<g opacity="0.7">
<g opacity="0.7">
<path opacity="0.7" d="M178.725 203.233C178.843 203.045 178.961 202.868 179.075 202.703C184.854 194.318 192.9 200.246 192.9 200.246C193.176 200.567 193.438 200.902 193.68 201.25C194.487 202.399 195.132 203.618 195.637 204.894C195.311 201.759 194.497 198.796 193.011 196.197C192.813 195.849 192.601 195.514 192.376 195.193C192.376 195.193 185.833 189.265 181.133 197.65C180.42 198.92 179.583 200.859 178.725 203.233Z" fill="white"/>
</g>
</g>
</g>
</g>
<path d="M195.601 205.788C195.534 205.788 195.465 205.782 195.396 205.771L179.043 203.052C178.371 202.94 177.917 202.307 178.029 201.636C178.14 200.967 178.777 200.514 179.449 200.626L195.802 203.345C196.474 203.456 196.928 204.09 196.816 204.76C196.716 205.363 196.193 205.788 195.601 205.788Z" fill="#4c1d95"/>
<path d="M195.497 214.588C195.442 214.588 195.387 214.585 195.331 214.576L176.201 212.015C175.525 211.925 175.051 211.306 175.142 210.633C175.232 209.96 175.853 209.488 176.53 209.579L195.66 212.14C196.335 212.23 196.809 212.849 196.719 213.522C196.636 214.14 196.106 214.588 195.497 214.588Z" fill="#4c1d95"/>
<path d="M193.81 223.207C193.76 223.207 193.709 223.204 193.658 223.198L174.239 220.831C173.562 220.748 173.081 220.135 173.163 219.462C173.246 218.788 173.861 218.308 174.538 218.391L193.958 220.758C194.634 220.841 195.116 221.454 195.033 222.127C194.957 222.751 194.424 223.207 193.81 223.207Z" fill="#4c1d95"/>
<path d="M190.73 232.607C190.693 232.607 190.655 232.606 190.617 232.603L173.255 231.042C172.577 230.982 172.076 230.383 172.137 229.707C172.198 229.031 172.799 228.532 173.478 228.594L190.839 230.154C191.518 230.215 192.019 230.813 191.958 231.489C191.9 232.127 191.361 232.607 190.73 232.607Z" fill="#4c1d95"/>
<g opacity="0.35">
<g opacity="0.35">
<g opacity="0.35">
<g opacity="0.35">
<path opacity="0.35" d="M178.651 241.263H181.317C184.447 241.263 187.284 239.435 188.559 236.588C189.59 234.281 190.845 231.264 192.018 227.845C190.418 230.49 187.167 232.167 183.597 232.167H180.419C175.897 231.387 174.196 226.97 174.128 221.181C172.6 230.953 173.019 240.105 178.651 241.263Z" fill="#4c1d95"/>
</g>
</g>
</g>
</g>
<path d="M181.318 242.492H178.652C178.568 242.492 178.485 242.484 178.403 242.467C176.248 242.023 174.62 240.632 173.563 238.33C171.07 232.903 172.282 223.449 173.737 216.474C175.516 207.95 178.262 200.25 180.056 197.051C181.705 194.109 183.782 192.415 186.229 192.017C189.982 191.408 193.077 194.165 193.207 194.282C193.275 194.344 193.336 194.413 193.389 194.488C193.635 194.839 193.869 195.21 194.085 195.589C197.2 201.044 197.861 208.505 196.05 217.764C194.577 225.292 191.778 232.428 189.688 237.089C188.218 240.371 184.933 242.492 181.318 242.492ZM178.786 240.034H181.318C183.959 240.034 186.36 238.485 187.433 236.088C189.47 231.544 192.198 224.595 193.626 217.296C195.322 208.63 194.754 201.735 191.939 196.805C191.786 196.536 191.622 196.274 191.452 196.023C190.989 195.647 188.889 194.068 186.612 194.446C184.952 194.722 183.471 196.002 182.211 198.249C180.551 201.211 177.864 208.781 176.154 216.974C174.204 226.326 174.08 233.547 175.808 237.308C176.509 238.835 177.484 239.728 178.786 240.034Z" fill="#4c1d95"/>
<path d="M41.9809 241.263H39.3152C36.1854 241.263 33.3477 239.435 32.0732 236.588C28.0828 227.688 20.8071 208.131 27.6221 196.197C27.8203 195.848 28.0326 195.513 28.2572 195.192C28.2572 195.192 34.7998 189.265 39.5003 197.65C43.8905 205.483 53.1055 238.976 41.9809 241.263Z" fill="#AFAFB2"/>
<g opacity="0.7">
<g opacity="0.7">
<g opacity="0.7">
<g opacity="0.7">
<path opacity="0.7" d="M41.9062 203.233C41.7885 203.045 41.6709 202.868 41.5565 202.703C35.7774 194.318 27.7317 200.246 27.7317 200.246C27.456 200.567 27.1936 200.902 26.9517 201.25C26.1445 202.399 25.4995 203.618 24.9951 204.894C25.321 201.759 26.1347 198.796 27.6206 196.197C27.8189 195.849 28.0311 195.514 28.2558 195.193C28.2558 195.193 34.7984 189.265 39.4988 197.65C40.2113 198.92 41.0489 200.859 41.9062 203.233Z" fill="white"/>
</g>
</g>
</g>
</g>
<path d="M25.0309 205.788C24.4385 205.788 23.916 205.362 23.8148 204.761C23.7029 204.091 24.1563 203.458 24.8293 203.346L41.1825 200.627C41.8547 200.515 42.4907 200.967 42.6026 201.637C42.7145 202.307 42.2611 202.94 41.5881 203.052L25.2349 205.771C25.1666 205.783 25.0983 205.788 25.0309 205.788Z" fill="#4c1d95"/>
<path d="M25.1343 214.588C24.5254 214.588 23.9956 214.14 23.9125 213.523C23.822 212.85 24.2959 212.231 24.9714 212.141L44.1022 209.579C44.7785 209.488 45.3989 209.96 45.4902 210.633C45.5807 211.306 45.1068 211.925 44.4313 212.015L25.3005 214.577C25.2445 214.585 25.1894 214.588 25.1343 214.588Z" fill="#4c1d95"/>
<path d="M26.8224 223.207C26.2078 223.207 25.6755 222.751 25.599 222.127C25.5159 221.454 25.9972 220.841 26.6743 220.758L46.094 218.39C46.7703 218.308 47.3857 218.787 47.4688 219.462C47.5519 220.135 47.0706 220.748 46.3935 220.831L26.9738 223.198C26.9228 223.205 26.8718 223.207 26.8224 223.207Z" fill="#4c1d95"/>
<path d="M29.9025 232.607C29.2706 232.607 28.7325 232.127 28.6749 231.489C28.614 230.813 29.1143 230.215 29.793 230.154L47.155 228.594C47.8346 228.533 48.4335 229.031 48.4952 229.707C48.5561 230.383 48.0559 230.981 47.3771 231.042L30.0152 232.603C29.9773 232.606 29.9395 232.607 29.9025 232.607Z" fill="#4c1d95"/>
<g opacity="0.35">
<g opacity="0.35">
<g opacity="0.35">
<g opacity="0.35">
<path opacity="0.35" d="M41.9801 241.263H39.3144C36.1846 241.263 33.3469 239.435 32.0724 236.588C31.0407 234.281 29.786 231.264 28.6127 227.845C30.213 230.49 33.4645 232.167 37.0345 232.167H40.212C44.7339 231.387 46.4354 226.97 46.5028 221.181C48.0315 230.953 47.6111 240.105 41.9801 241.263Z" fill="#4c1d95"/>
</g>
</g>
</g>
</g>
<path d="M41.9803 242.492H39.3145C35.7002 242.492 32.4149 240.371 30.9454 237.088C28.8564 232.429 26.0557 225.293 24.583 217.765C22.7721 208.506 23.4328 201.045 26.5478 195.589C26.7641 195.21 26.9986 194.84 27.2438 194.489C27.2965 194.413 27.3574 194.345 27.4256 194.283C27.5556 194.165 30.65 191.408 34.4035 192.018C36.8504 192.416 38.9278 194.109 40.5767 197.051C42.3703 200.251 45.1167 207.95 46.8955 216.475C48.3509 223.45 49.562 232.904 47.0699 238.331C46.0126 240.633 44.3844 242.024 42.2296 242.467C42.1473 242.484 42.0634 242.492 41.9803 242.492ZM29.1798 196.024C29.0095 196.274 28.8466 196.536 28.6935 196.804C25.878 201.735 25.3095 208.629 27.0052 217.296C28.4335 224.596 31.161 231.544 33.199 236.088C34.2727 238.486 36.6727 240.034 39.3137 240.034H41.8454C43.1478 239.729 44.1236 238.836 44.8246 237.308C46.5516 233.547 46.429 226.325 44.4782 216.974C42.7685 208.78 40.0814 201.211 38.421 198.249C37.1614 196.002 35.6804 194.722 34.0201 194.446C31.7476 194.069 29.6479 195.643 29.1798 196.024Z" fill="#4c1d95"/>
<path d="M72.0715 240.141C71.8962 240.141 71.7185 240.1 71.5523 240.013C71.0027 239.727 70.7904 239.051 71.0784 238.504C75.7657 229.584 75.8348 219.552 71.2841 208.688C67.8515 200.494 62.9363 194.887 62.887 194.831C62.4772 194.368 62.5217 193.662 62.9865 193.253C63.4514 192.845 64.1606 192.888 64.5704 193.351C64.7802 193.588 69.7488 199.246 73.3295 207.764C75.4423 212.789 76.6205 217.763 76.8328 222.546C77.0994 228.56 75.8323 234.278 73.067 239.54C72.8663 239.923 72.4755 240.141 72.0715 240.141Z" fill="#4c1d95"/>
<path d="M149.016 240.141C148.611 240.141 148.221 239.923 148.02 239.541C145.255 234.278 143.988 228.561 144.254 222.547C144.467 217.764 145.645 212.79 147.758 207.764C151.338 199.247 156.307 193.588 156.517 193.352C156.927 192.889 157.636 192.845 158.101 193.254C158.566 193.662 158.611 194.368 158.2 194.831C158.151 194.887 153.235 200.494 149.803 208.688C145.252 219.552 145.321 229.584 150.009 238.504C150.296 239.051 150.084 239.726 149.535 240.013C149.369 240.1 149.191 240.141 149.016 240.141Z" fill="#4c1d95"/>
<g opacity="0.35">
<path d="M147.513 132.726C146.218 134.202 144.857 135.603 143.438 136.919C140.071 140.042 136.38 142.7 132.433 144.806C125.764 148.369 118.367 150.367 110.576 150.403C102.965 150.437 95.7204 148.596 89.1539 145.249C84.8542 143.054 80.8465 140.217 77.2206 136.837C75.4171 135.152 73.7066 133.337 72.1013 131.403C75.009 130.509 77.8977 129.472 80.5429 128.447C83.8282 120.565 87.6598 112.492 92.1282 104.419H128.503C132.197 111.094 135.456 117.765 138.33 124.336C141.069 125.927 144.224 128.924 147.513 132.726Z" fill="#4c1d95"/>
</g>
<path d="M165.863 96.7335C165.23 96.8015 164.661 96.3451 164.593 95.7141L161.043 62.8088C160.974 62.1778 161.433 61.6116 162.066 61.5436C168.712 60.8323 174.677 65.6213 175.392 72.2402L176.603 83.4613C177.318 90.0802 172.509 96.0222 165.863 96.7335Z" fill="white"/>
<path d="M165.737 97.0236C165.411 97.0236 165.096 96.9138 164.838 96.7065C164.539 96.4664 164.352 96.1247 164.311 95.7444L160.76 62.8392C160.719 62.4589 160.83 62.0852 161.071 61.7878C161.312 61.4903 161.655 61.3035 162.037 61.2625C168.829 60.5356 174.946 65.4467 175.676 72.2107L176.886 83.4318C177.24 86.7081 176.291 89.9253 174.214 92.4911C172.138 95.0569 169.183 96.6639 165.894 97.0162L165.863 96.7343L165.894 97.0162C165.842 97.0212 165.789 97.0236 165.737 97.0236ZM163.369 61.7566C162.948 61.7566 162.524 61.7788 162.097 61.8247C161.866 61.8492 161.659 61.9623 161.513 62.1418C161.368 62.3221 161.301 62.5474 161.326 62.7777L164.876 95.683C164.901 95.9132 165.014 96.1197 165.195 96.2648C165.376 96.4098 165.602 96.4762 165.834 96.4516C168.972 96.1156 171.791 94.5824 173.772 92.1346C175.754 89.6869 176.659 86.6171 176.321 83.4908L175.111 72.2697C174.459 66.2425 169.324 61.7566 163.369 61.7566Z" fill="#4c1d95"/>
<g opacity="0.35">
<g opacity="0.35">
<g opacity="0.35">
<g opacity="0.35">
<path opacity="0.35" d="M176.035 78.1994L176.605 83.462C177.318 90.0785 172.51 96.0221 165.864 96.7359C165.23 96.8047 164.662 96.3442 164.593 95.714L163.646 86.9669C163.867 87.3464 164.298 87.5791 164.763 87.5332L165.546 87.4472C170.797 86.8858 174.904 83.0548 176.035 78.1994Z" fill="#4c1d95"/>
</g>
</g>
</g>
</g>
<path d="M165.736 98.3176C165.114 98.3176 164.515 98.1078 164.023 97.7136C163.454 97.2572 163.098 96.6065 163.02 95.8829L159.469 62.9777C159.391 62.2541 159.601 61.5428 160.059 60.9757C160.518 60.4086 161.171 60.0538 161.897 59.976C169.399 59.1729 176.16 64.5994 176.966 72.0722L178.177 83.2933C178.568 86.9129 177.519 90.4678 175.225 93.3032C172.932 96.1378 169.667 97.9136 166.032 98.302C165.934 98.3119 165.834 98.3176 165.736 98.3176ZM165.696 95.1659H165.695C165.695 95.1659 165.695 95.1659 165.696 95.1659ZM162.665 63.0744L166.122 95.1126C168.744 94.7258 171.089 93.3917 172.762 91.3242C174.525 89.1452 175.331 86.4131 175.03 83.6301L173.82 72.409C173.215 66.8071 168.259 62.7007 162.665 63.0744Z" fill="#4c1d95"/>
<path d="M53.0181 73.2153C53.6516 73.1473 54.2201 73.6037 54.2884 74.2347L57.8386 107.14C57.9069 107.771 57.4486 108.337 56.8151 108.405C50.1697 109.117 44.2038 104.328 43.4896 97.7087L42.2794 86.4876C41.5636 79.8686 46.3726 73.9266 53.0181 73.2153Z" fill="white"/>
<path d="M55.512 108.759C49.2706 108.759 43.8872 104.057 43.206 97.739L41.9957 86.5179C41.2659 79.754 46.1967 73.6603 52.9878 72.9335L53.0182 73.2153L52.9878 72.9335C53.7752 72.849 54.4861 73.4194 54.5708 74.2045L58.121 107.11C58.2058 107.895 57.6331 108.602 56.8449 108.686C56.3982 108.735 55.9522 108.759 55.512 108.759ZM53.1417 73.4915C53.1104 73.4915 53.08 73.4932 53.0479 73.4964C46.5686 74.1897 41.864 80.0039 42.5609 86.4573L43.7712 97.6784C44.4673 104.132 50.304 108.818 56.784 108.124C57.2604 108.073 57.6068 107.646 57.5558 107.171L54.0056 74.2659C53.9578 73.8218 53.5794 73.4915 53.1417 73.4915Z" fill="#4c1d95"/>
<g opacity="0.35">
<g opacity="0.35">
<g opacity="0.35">
<g opacity="0.35">
<path opacity="0.35" d="M56.8568 98.0111L57.8408 107.14C57.9099 107.771 57.4475 108.337 56.8148 108.405C53.3263 108.777 50.0221 107.636 47.5686 105.507C45.3529 103.584 43.8308 100.852 43.491 97.7104L42.9809 92.982C45.3151 96.9286 49.8296 99.3682 54.702 98.8478L55.9073 98.7183C56.3467 98.6708 56.6947 98.3881 56.8568 98.0111Z" fill="#4c1d95"/>
</g>
</g>
</g>
</g>
<path d="M55.5113 110.052C48.6149 110.052 42.668 104.858 41.9152 97.8766L40.7049 86.6556C39.8986 79.1828 45.3469 72.4499 52.8497 71.6469C54.3488 71.4862 55.7014 72.5712 55.8626 74.0651L59.4129 106.971C59.5741 108.466 58.4848 109.811 56.9841 109.972C56.4896 110.026 55.9976 110.052 55.5113 110.052ZM52.7608 74.8371C47.2154 75.6566 43.248 80.7176 43.852 86.3196L45.0622 97.5407C45.667 103.143 50.6233 107.248 56.2172 106.875L52.7608 74.8371Z" fill="#4c1d95"/>
<path d="M109.446 141.37C140.718 141.37 166.069 116.121 166.069 84.974C166.069 53.8271 140.718 28.5776 109.446 28.5776C78.1747 28.5776 52.8239 53.8271 52.8239 84.974C52.8239 116.121 78.1747 141.37 109.446 141.37Z" fill="white"/>
<path d="M109.392 141.655C102.449 141.655 95.6673 140.415 89.2012 137.96C82.3254 135.351 76.0963 131.485 70.685 126.471C65.2737 121.457 60.9542 115.547 57.8449 108.905C54.6263 102.028 52.8541 94.6643 52.5768 87.0178C52.2995 79.3712 53.5345 71.8993 56.2471 64.8091C58.8668 57.9608 62.7486 51.7565 67.7822 46.3668C72.8159 40.9771 78.7513 36.6741 85.4206 33.5773C92.3252 30.3715 99.7186 28.6063 107.396 28.3302C115.073 28.054 122.575 29.284 129.693 31.9859C136.569 34.5951 142.798 38.4614 148.21 43.4749C153.621 48.4893 157.94 54.3993 161.05 61.0412C164.268 67.9182 166.041 75.282 166.318 82.9286C166.595 90.5751 165.36 98.0471 162.647 105.137C160.028 111.986 156.146 118.19 151.112 123.58C146.077 128.969 140.143 133.271 133.475 136.368C126.57 139.574 119.177 141.339 111.5 141.615C110.795 141.642 110.092 141.655 109.392 141.655ZM109.473 28.8596C108.789 28.8596 108.106 28.8719 107.415 28.8964C76.3711 30.0126 52.0255 56.076 53.1453 86.9965C53.6875 101.975 60.054 115.847 71.0716 126.056C81.5791 135.793 95.1193 141.087 109.396 141.088C110.089 141.088 110.781 141.075 111.477 141.05C126.516 140.51 140.444 134.169 150.694 123.195C160.944 112.222 166.29 97.9291 165.748 82.9507C164.653 52.717 139.607 28.8596 109.473 28.8596Z" fill="#4c1d95"/>
<g opacity="0.35">
<g opacity="0.35">
<g opacity="0.35">
<g opacity="0.35">
<path opacity="0.35" d="M165.208 75.1584C165.661 77.6938 165.938 80.2916 166.034 82.9409C167.157 114.067 142.739 140.21 111.488 141.335C80.2369 142.454 53.9891 118.133 52.8595 87.0072C52.8266 86.1123 52.815 85.2158 52.8257 84.3316C57.634 111.63 82.0346 131.904 110.628 130.877C140.981 129.785 164.884 105.095 165.208 75.1584Z" fill="#4c1d95"/>
</g>
</g>
</g>
</g>
<path d="M109.391 142.948C102.29 142.948 95.3534 141.679 88.7392 139.169C81.7071 136.5 75.3348 132.546 69.8009 127.418C64.267 122.29 59.8488 116.244 56.6688 109.451C53.3761 102.417 51.5636 94.8839 51.2805 87.0637C50.9975 79.2434 52.2604 71.6002 55.0356 64.3478C57.7153 57.3437 61.6852 50.9969 66.834 45.4851C71.9829 39.9733 78.0507 35.5719 84.8722 32.4055C91.9348 29.1259 99.4976 27.3206 107.349 27.0387C115.202 26.7568 122.875 28.0147 130.156 30.7788C137.188 33.4478 143.561 37.4018 149.095 42.5301C154.628 47.6584 159.047 53.7036 162.227 60.4971C165.519 67.5315 167.332 75.0641 167.615 82.8843C167.898 90.7046 166.635 98.3478 163.86 105.6C161.18 112.604 157.21 118.951 152.061 124.463C146.913 129.975 140.843 134.375 134.022 137.543C126.96 140.822 119.397 142.627 111.545 142.909C110.826 142.935 110.107 142.948 109.391 142.948ZM109.474 30.1535C108.805 30.1535 108.137 30.1658 107.464 30.1896C77.1342 31.2795 53.3498 56.7422 54.444 86.9506C54.9739 101.584 61.194 115.136 71.9573 125.11C82.2229 134.623 95.4505 139.795 109.399 139.795C110.075 139.795 110.753 139.783 111.433 139.758C126.125 139.231 139.731 133.035 149.745 122.315C159.76 111.595 164.983 97.6316 164.452 82.9982C163.382 53.4602 138.912 30.1535 109.474 30.1535Z" fill="#4c1d95"/>
<path d="M165.905 84.3946C166.472 95.4158 163.406 105.832 157.698 114.611C153.419 121.193 135.058 133.267 111.69 134.669C90.0222 135.968 69.7074 125.463 64.7757 119.351C58.1969 111.198 54.079 101.149 53.5121 90.1277C52.0122 60.9617 76.5494 47.5871 107.588 46.0038C138.625 44.4206 164.406 55.2287 165.905 84.3946Z" fill="#3949AB"/>
<path d="M107.928 135.864C97.1543 135.864 87.7839 133.19 81.5638 130.8C73.6875 127.774 66.764 123.547 63.9263 120.03C56.9616 111.399 52.9843 101.078 52.424 90.1826C52.0522 82.9532 53.2493 76.3933 55.98 70.6848C58.5512 65.3123 62.4947 60.6577 67.7027 56.8488C77.2172 49.8898 90.9894 45.7654 107.53 44.9221C124.072 44.0789 138.195 46.7799 148.373 52.7342C153.944 55.9933 158.345 60.2226 161.453 65.3058C164.756 70.7061 166.619 77.1103 166.99 84.3397C167.551 95.2347 164.652 105.906 158.61 115.2C156.099 119.062 149.864 123.795 142.338 127.552C135.727 130.852 125.054 134.953 111.753 135.75C110.462 135.827 109.185 135.864 107.928 135.864ZM113.371 46.9372C111.498 46.9372 109.589 46.9864 107.642 47.0856C91.5266 47.9075 78.1617 51.8877 68.9904 58.5951C58.7511 66.0843 53.9083 76.6752 54.597 90.072C55.1334 100.509 58.9461 110.399 65.622 118.673C67.6081 121.134 73.1799 125.258 82.3471 128.779C89.0913 131.369 99.644 134.306 111.623 133.588C124.556 132.812 134.936 128.823 141.365 125.614C149.98 121.314 155.056 116.682 156.786 114.023C162.578 105.113 165.356 94.8872 164.82 84.4504C164.131 71.0536 158.227 61.0109 147.273 54.6026C138.646 49.5563 127.008 46.9372 113.371 46.9372Z" fill="#4c1d95"/>
<g opacity="0.5">
<g opacity="0.5">
<g opacity="0.5">
<g opacity="0.5">
<path d="M154.632 82.2866C155.339 76.8197 152.688 71.9745 148.711 71.4645C144.734 70.9545 140.936 74.9727 140.23 80.4395C139.523 85.9064 142.174 90.7516 146.151 91.2616C150.129 91.7717 153.926 87.7534 154.632 82.2866Z" fill="white"/>
</g>
</g>
</g>
</g>
<g opacity="0.5">
<g opacity="0.5">
<g opacity="0.5">
<g opacity="0.5">
<path d="M143.378 102.607C144.047 100.166 142.886 97.724 140.783 97.1517C138.681 96.5794 136.433 98.0938 135.764 100.534C135.094 102.975 136.256 105.417 138.358 105.989C140.461 106.561 142.708 105.047 143.378 102.607Z" fill="white"/>
</g>
</g>
</g>
</g>
<g opacity="0.35">
<path d="M153.576 57.7429C160.782 63.9217 165.301 72.6795 165.905 84.3931C166.472 95.4167 163.403 105.832 157.7 114.611C153.419 121.193 135.056 133.267 111.688 134.671C103.437 135.169 95.3849 133.951 88.2993 131.913C116.987 129.577 139.348 114.767 144.655 106.603C151.9 95.4609 155.791 82.2395 155.07 68.2543C154.88 64.5159 154.368 61.0159 153.576 57.7429Z" fill="#4c1d95"/>
</g>
<path d="M56.4646 66.5579C56.1454 66.5579 55.8245 66.4588 55.5497 66.2531C54.903 65.7679 54.7541 64.869 55.1943 64.206C57.5441 60.361 60.5447 56.8471 64.1122 53.7626C67.5859 50.7601 71.6256 48.1386 76.1187 45.971C80.518 43.8494 85.3806 42.1498 90.5705 40.919C95.7136 39.6996 101.204 38.9342 106.891 38.6441C112.484 38.3589 117.964 38.5515 123.18 39.2153C128.443 39.8856 133.447 41.0386 138.052 42.6407C142.764 44.2805 147.075 46.398 150.867 48.9343C154.764 51.5418 158.135 54.6083 160.888 58.0493C161.368 58.5795 161.418 59.3916 160.968 59.9816C160.459 60.6487 159.504 60.7782 158.834 60.2717L158.675 60.1537L158.555 60.0013C148.361 47.2044 129.587 40.524 107.046 41.6737C84.3809 42.83 66.4217 51.6312 57.7728 65.8204L57.7333 65.8851L57.6815 65.9531C57.3836 66.3489 56.927 66.5579 56.4646 66.5579Z" fill="#4c1d95"/>
<g opacity="0.5">
<g opacity="0.5">
<g opacity="0.5">
<g opacity="0.5">
<path d="M67.0243 106.834C67.0243 106.834 56.4756 78.5248 71.4548 66.2646C86.434 54.0045 108.835 52.9088 108.385 54.3659C108.385 54.3659 83.8958 61.61 75.1967 81.6298C68.4888 97.0679 67.0243 106.834 67.0243 106.834Z" fill="white"/>
</g>
</g>
</g>
</g>
<path d="M160.763 244.508H60.3396C57.0881 244.508 54.452 241.882 54.452 238.644C54.452 236.778 55.9708 235.265 57.8442 235.265H163.258C165.131 235.265 166.65 236.778 166.65 238.644C166.65 241.883 164.014 244.508 160.763 244.508Z" fill="#E6E9FA"/>
<g opacity="0.3">
<g opacity="0.3">
<g opacity="0.3">
<g opacity="0.3">
<path opacity="0.3" d="M166.649 238.644C166.649 239.285 166.544 239.901 166.353 240.478C165.826 239.297 164.64 238.477 163.259 238.477H57.845C56.9096 238.477 56.0605 238.853 55.4467 239.469C55.1546 239.76 54.9152 240.099 54.7473 240.479C54.5565 239.902 54.452 239.287 54.452 238.645C54.452 237.714 54.8296 236.868 55.4475 236.257C56.0613 235.642 56.9104 235.265 57.8459 235.265H163.259C165.133 235.264 166.649 236.777 166.649 238.644Z" fill="white"/>
</g>
</g>
</g>
</g>
<g opacity="0.35">
<g opacity="0.35">
<g opacity="0.35">
<g opacity="0.35">
<path opacity="0.35" d="M166.649 238.645C166.649 240.262 165.99 241.731 164.923 242.789C163.86 243.851 162.386 244.507 160.763 244.507H60.3413C57.0897 244.507 54.4511 241.883 54.4511 238.645C54.4511 238.022 54.6198 237.437 54.9185 236.934C55.8087 239.032 57.9043 240.508 60.3405 240.508H160.762C162.386 240.508 163.86 239.852 164.923 238.79C165.454 238.26 165.884 237.631 166.18 236.934C166.481 237.437 166.649 238.022 166.649 238.645Z" fill="#4c1d95"/>
</g>
</g>
</g>
</g>
<path d="M160.763 245.999H60.3403C56.2684 245.999 52.956 242.7 52.956 238.645C52.956 235.96 55.1495 233.775 57.8448 233.775H163.259C165.954 233.775 168.148 235.96 168.148 238.645C168.148 242.699 164.835 245.999 160.763 245.999ZM57.844 236.757C56.7991 236.757 55.9484 237.603 55.9484 238.645C55.9484 241.056 57.9181 243.018 60.3395 243.018H160.763C163.185 243.018 165.154 241.056 165.154 238.645C165.154 237.604 164.304 236.757 163.259 236.757H57.844Z" fill="#4c1d95"/>
<path d="M172.512 169.244L162.69 235.263H58.4143L58.0589 232.875L48.5873 169.244C48.2771 167.154 49.9045 165.279 52.0223 165.279H169.076C171.199 165.279 172.823 167.154 172.512 169.244Z" fill="#FF66AC"/>
<path d="M172.512 169.244L162.69 235.263H58.4143L58.0589 232.875L48.5873 169.244C48.2771 167.154 49.9045 165.279 52.0223 165.279H169.076C171.199 165.279 172.823 167.154 172.512 169.244Z" fill="#E6E9FA"/>
<g opacity="0.5">
<g opacity="0.5">
<g opacity="0.5">
<g opacity="0.5">
<path opacity="0.5" d="M52.2901 173.342C51.9799 171.252 53.6073 169.377 55.7251 169.377H172.493L172.513 169.245C172.823 167.154 171.2 165.279 169.078 165.279H52.0235C49.9057 165.279 48.2783 167.154 48.5885 169.245L58.0593 232.876L58.4147 235.264H61.5075L52.2901 173.342Z" fill="white"/>
</g>
</g>
</g>
</g>
<g opacity="0.35">
<g opacity="0.35">
<g opacity="0.35">
<g opacity="0.35">
<path opacity="0.35" d="M165.786 165.279H157.567C160.684 176.651 158.964 202.332 138.857 215.753C113.617 232.602 68.1279 232.494 58.4703 232.875L58.8257 235.263H159.399L169.221 169.244C169.532 167.154 167.908 165.279 165.786 165.279Z" fill="#4c1d95"/>
</g>
</g>
</g>
</g>
<path d="M163.98 236.757H57.123L47.1092 169.462C46.8969 168.037 47.3174 166.595 48.2619 165.504C49.2064 164.413 50.578 163.788 52.0236 163.788H169.079C170.526 163.788 171.897 164.413 172.841 165.504C173.786 166.595 174.206 168.037 173.994 169.462L163.98 236.757ZM59.7057 233.774H161.397L171.033 169.024C171.118 168.45 170.955 167.891 170.574 167.451C170.193 167.011 169.663 166.769 169.079 166.769H52.0236C51.4402 166.769 50.9095 167.012 50.5286 167.451C50.1477 167.891 49.9848 168.45 50.0703 169.024L59.7057 233.774Z" fill="#4c1d95"/>
<g opacity="0.3">
<g opacity="0.3">
<g opacity="0.3">
<g opacity="0.3">
<path opacity="0.3" d="M66.7148 219.839C62.7589 211.155 59.8785 196.329 60.5276 187.604C61.1768 178.88 66.2573 181.549 67.8321 192.725C72.0224 222.469 68.4804 223.717 66.7148 219.839Z" fill="white"/>
</g>
</g>
</g>
</g>
<path d="M124.175 192.781C124.302 191.666 124.451 190.54 124.231 189.406C124.133 189.283 124.043 189.157 123.945 189.034C123.621 188.918 123.306 188.766 122.969 188.682C120.596 188.071 118.19 187.83 115.747 188.039C112.56 188.313 109.635 189.292 107.12 191.31C106.209 192.038 105.379 192.86 104.529 193.657C104.301 193.873 104.126 193.963 103.806 193.818C103.053 193.477 102.242 193.324 101.418 193.283C99.209 193.183 97.2377 193.895 95.3988 195.044C93.4061 196.295 91.8 197.966 90.3042 199.755C89.6674 200.513 89.9151 201.358 90.8629 201.676C91.461 201.871 92.0592 202.062 92.6573 202.257C94.0906 202.719 95.5206 203.177 96.9497 203.638C96.9464 203.683 96.9505 203.705 96.9439 203.728C96.9324 203.755 96.9201 203.787 96.9003 203.814C96.3038 204.578 96.4486 205.285 97.0772 205.948C97.1447 206.022 97.2031 206.11 97.2623 206.189C97.5915 206.62 97.928 207.056 98.2768 207.505C97.8004 207.872 97.3323 208.183 96.9184 208.559C96.7094 208.749 96.5251 209.024 96.4462 209.297C96.3121 209.737 96.5408 210.187 96.9341 210.418C97.3512 210.668 97.7807 210.657 98.169 210.378C98.6619 210.029 99.1325 209.651 99.6335 209.27C100.107 209.891 100.555 210.478 101.005 211.059C101.521 211.72 101.876 211.833 102.676 211.613C102.822 211.568 102.966 211.536 103.138 211.495C103.149 211.665 103.162 211.802 103.17 211.93C103.272 213.988 103.366 216.05 103.479 218.103C103.531 219.076 104.303 219.536 105.186 219.119C105.983 218.744 106.779 218.348 107.561 217.926C109.362 216.95 111.001 215.755 112.308 214.166C113.945 212.167 114.851 209.933 114.427 207.295C114.409 207.191 114.496 207.013 114.586 206.96C115.389 206.444 116.214 205.961 117.018 205.442C118.834 204.263 120.295 202.73 121.437 200.9C122.988 198.411 123.845 195.68 124.175 192.781ZM98.132 201.689C96.4774 201.152 94.762 200.595 92.9996 200.024C94.8204 198.096 96.7473 196.413 99.3423 195.702C100.464 195.395 101.76 195.421 102.525 195.731C101.072 197.706 99.6154 199.681 98.132 201.689ZM112.049 210.16C111.629 211.496 110.826 212.584 109.837 213.555C108.607 214.747 107.177 215.637 105.63 216.448C105.537 214.555 105.441 212.703 105.348 210.89C107.687 209.983 109.974 209.099 112.273 208.209C112.362 208.84 112.253 209.509 112.049 210.16ZM120.686 197.486C119.934 199.255 118.946 200.866 117.538 202.2C116.451 203.224 115.218 204.045 113.92 204.775C110.4 206.754 106.628 208.118 102.771 209.272C102.582 209.326 102.467 209.316 102.343 209.144C102.074 208.763 101.772 208.396 101.487 208.02C101.468 207.999 101.462 207.963 101.435 207.896C101.533 207.818 101.639 207.74 101.745 207.659C103.946 205.975 106.157 204.298 108.359 202.611C108.995 202.13 109.023 201.304 108.434 200.827C108.022 200.491 107.48 200.496 107.005 200.852C105.681 201.858 104.359 202.865 103.038 203.875C102.052 204.626 101.075 205.373 100.052 206.155C99.7002 205.698 99.3612 205.28 99.0551 204.841C99.0033 204.763 99.056 204.564 99.1267 204.467C100.3 202.723 101.463 200.97 102.684 199.257C103.892 197.555 105.265 195.984 106.776 194.541C108.192 193.178 109.727 191.975 111.583 191.258C112.772 190.797 114 190.483 115.268 190.348C115.383 190.332 115.55 190.446 115.631 190.552C116.921 192.212 118.194 193.875 119.472 195.541C119.855 196.037 120.234 196.542 120.629 197.032C120.747 197.18 120.762 197.306 120.686 197.486ZM121.451 195.163C120.177 193.501 118.933 191.884 117.687 190.26C117.689 190.223 117.7 190.18 117.706 190.14C119.156 190.313 120.61 190.49 122.079 190.665C122.051 192.241 121.818 193.684 121.451 195.163Z" fill="#4c1d95"/>
<path d="M120.631 197.032C120.235 196.542 119.857 196.036 119.474 195.54C118.197 193.874 116.923 192.211 115.633 190.551C115.552 190.445 115.385 190.331 115.27 190.347C114.002 190.482 112.774 190.796 111.585 191.258C109.728 191.975 108.194 193.178 106.778 194.54C105.267 195.983 103.894 197.554 102.686 199.256C101.465 200.97 100.302 202.723 99.1287 204.466C99.058 204.563 99.0053 204.762 99.0572 204.84C99.3624 205.28 99.7014 205.697 100.054 206.154C101.077 205.372 102.054 204.624 103.04 203.874C104.362 202.864 105.683 201.857 107.008 200.851C107.482 200.496 108.024 200.491 108.436 200.826C109.025 201.304 108.998 202.13 108.361 202.611C106.159 204.297 103.948 205.975 101.747 207.658C101.641 207.739 101.535 207.817 101.437 207.895C101.464 207.963 101.47 207.998 101.489 208.019C101.774 208.395 102.076 208.762 102.345 209.143C102.469 209.316 102.584 209.325 102.773 209.271C106.63 208.117 110.402 206.753 113.922 204.774C115.22 204.045 116.453 203.223 117.54 202.199C118.947 200.865 119.936 199.254 120.688 197.485C120.762 197.306 120.748 197.18 120.631 197.032ZM116.768 199.569C115.085 200.832 112.704 200.523 111.441 198.87C110.169 197.219 110.489 194.849 112.156 193.569C113.793 192.314 116.175 192.638 117.451 194.29C118.712 195.931 118.404 198.336 116.768 199.569Z" fill="white"/>
<path d="M121.45 195.162C120.176 193.503 118.932 191.884 117.687 190.26C117.691 190.222 117.699 190.182 117.705 190.14C119.156 190.314 120.61 190.491 122.081 190.666C122.053 192.239 121.817 193.684 121.45 195.162Z" fill="#DB2C2C"/>
<path d="M102.525 195.732C101.071 197.704 99.6143 199.681 98.1325 201.69C96.4754 201.15 94.76 200.595 92.9984 200.024C94.8209 198.094 96.7469 196.411 99.3419 195.702C100.463 195.394 101.758 195.421 102.525 195.732Z" fill="#DB2C2C"/>
<path d="M109.835 213.555C108.606 214.748 107.177 215.639 105.629 216.448C105.535 214.557 105.44 212.705 105.347 210.89C107.686 209.984 109.973 209.101 112.275 208.208C112.363 208.841 112.252 209.508 112.05 210.161C111.63 211.498 110.827 212.585 109.835 213.555Z" fill="#DB2C2C"/>
<path d="M117.45 194.29C116.174 192.638 113.792 192.315 112.155 193.569C110.488 194.85 110.167 197.219 111.439 198.87C112.703 200.523 115.084 200.832 116.767 199.569C118.404 198.336 118.712 195.931 117.45 194.29ZM115.633 198.175C114.781 198.818 113.528 198.648 112.864 197.8C112.177 196.926 112.365 195.641 113.274 194.969C114.126 194.333 115.402 194.517 116.043 195.37C116.712 196.256 116.528 197.501 115.633 198.175Z" fill="#4c1d95"/>
<path d="M115.632 198.175C114.78 198.818 113.527 198.648 112.862 197.799C112.178 196.926 112.363 195.641 113.272 194.969C114.126 194.335 115.4 194.517 116.041 195.368C116.711 196.256 116.529 197.502 115.632 198.175Z" fill="#22A7F0"/>
<path d="M171.995 172.728C171.995 172.728 163.914 168.908 156.325 172.334C149.057 175.615 143.916 198.975 153.332 204.893C159.143 208.545 163.099 205.319 166.386 206.266C171.263 207.671 181.268 183.618 171.995 172.728Z" fill="white"/>
<g opacity="0.35">
<path d="M175.641 187.93C174.684 197.721 169.494 207.161 166.388 206.266C163.098 205.32 159.143 208.547 153.332 204.895C148.834 202.066 147.659 195.261 148.452 188.559C148.987 192.469 150.503 195.819 153.332 197.597C159.143 201.245 163.013 199.55 166.388 198.969C170.56 198.249 173.961 193.71 175.641 187.93Z" fill="#4c1d95"/>
</g>
<path d="M159.29 208.17C157.33 208.17 155.061 207.743 152.532 206.154C150.269 204.731 148.634 202.429 147.674 199.312C146.867 196.696 146.566 193.509 146.802 190.094C147.081 186.05 148.079 181.901 149.612 178.411C150.784 175.746 152.792 172.292 155.706 170.976C163.834 167.307 172.28 171.212 172.636 171.38L172.927 171.518L173.135 171.763C177.379 176.747 177.624 183.633 177.082 188.531C176.471 194.05 174.516 199.905 171.977 203.81C169.435 207.722 167.307 208.084 165.969 207.699C165.101 207.449 164.004 207.623 162.734 207.826C161.73 207.986 160.576 208.17 159.29 208.17ZM163.242 172.394C160.967 172.394 158.858 172.828 156.943 173.693C155.367 174.404 153.695 176.56 152.356 179.608C150.977 182.745 150.042 186.641 149.789 190.3C149.343 196.759 150.925 201.619 154.13 203.633C157.361 205.664 159.853 205.266 162.262 204.882C163.82 204.634 165.291 204.399 166.802 204.835C166.976 204.865 168.221 204.386 169.978 201.355C174.075 194.287 176.673 180.939 171.068 173.951C170.433 173.688 168.798 173.069 166.659 172.699C165.483 172.496 164.343 172.394 163.242 172.394Z" fill="#4c1d95"/>
<path d="M194.594 87.6947C191.712 84.7274 189.745 80.8324 189.22 76.4162C187.946 65.6967 195.637 55.9777 206.399 54.7083C217.162 53.439 226.92 61.0994 228.194 71.819C229.469 82.5385 221.778 92.2575 211.015 93.5269C208.022 93.8801 205.107 93.54 202.43 92.6378L194.013 96.5926L194.594 87.6947Z" fill="#FF0068"/>
<g opacity="0.5">
<path opacity="0.5" d="M206.843 58.4411C196.79 59.6269 189.418 68.1863 189.529 78.0463C189.375 77.3743 189.253 76.6892 189.169 75.9902C187.894 65.2706 195.585 55.5517 206.348 54.2823C217.111 53.0129 226.869 60.6734 228.143 71.3929C228.227 72.0961 228.27 72.7934 228.278 73.4859C226.078 63.8677 216.9 57.2553 206.843 58.4411Z" fill="white"/>
</g>
<path d="M194.012 98.0267C193.728 98.0267 193.445 97.9431 193.202 97.7784C192.781 97.4924 192.542 97.0064 192.575 96.4992L193.117 88.2217C190.149 84.9773 188.311 80.9677 187.79 76.5843C187.128 71.0192 188.682 65.5312 192.164 61.1298C195.647 56.7292 200.642 53.9422 206.23 53.2833C211.817 52.6244 217.327 54.1716 221.745 57.6405C226.163 61.1093 228.962 66.0843 229.623 71.6494C230.285 77.2145 228.731 82.7025 225.248 87.1031C221.766 91.5037 216.771 94.2907 211.183 94.9495C208.242 95.2962 205.333 95.0356 202.528 94.1751L194.626 97.8882C194.431 97.9816 194.221 98.0267 194.012 98.0267ZM208.72 56.0056C208.009 56.0056 207.292 56.0474 206.568 56.1326C201.745 56.7013 197.433 59.1073 194.426 62.9064C191.42 66.7055 190.078 71.4437 190.65 76.2475C191.121 80.2154 192.843 83.8293 195.629 86.6974C195.911 86.9883 196.058 87.3841 196.031 87.7881L195.607 94.2579L201.814 91.3414C202.151 91.1832 202.537 91.1611 202.89 91.2799C205.459 92.1461 208.135 92.4231 210.845 92.1035C220.802 90.9292 227.943 81.9051 226.764 71.9887C225.671 62.7909 217.799 56.0056 208.72 56.0056Z" fill="#4c1d95"/>
<g opacity="0.3">
<path opacity="0.3" d="M194.446 87.5358C200.684 90.785 208.345 91.1095 215.12 87.7308C222.634 83.9842 227.141 76.6417 227.605 68.846C227.874 69.8064 228.073 70.798 228.194 71.819C229.468 82.5386 221.777 92.2576 211.014 93.527C208.021 93.8802 205.106 93.5401 202.429 92.6378L194.012 96.5926L194.595 87.6948C194.544 87.6423 194.496 87.5882 194.446 87.5358Z" fill="#4c1d95"/>
</g>
<path d="M202.5 68.6288C204.199 66.9375 206.952 67.2407 208.651 68.9321L208.915 69.1951L209.179 68.9321C210.877 67.2407 213.631 66.9375 215.329 68.6288C217.027 70.3202 217.027 73.063 215.329 74.7544L215.065 75.0175L209.726 80.3351C209.278 80.7809 208.553 80.7809 208.104 80.3351L202.765 75.0175L202.501 74.7544C200.802 73.0622 200.802 70.3202 202.5 68.6288Z" fill="white"/>
</svg>
